<?xml version="1.0" standalone="no"?>
<!DOCTYPE svg PUBLIC "-//W3C//DTD SVG 20010904//EN"
 "http://www.w3.org/TR/2001/REC-SVG-20010904/DTD/svg10.dtd">
<svg version="1.0" xmlns="http://www.w3.org/2000/svg"
 width="501.000000pt" height="460.000000pt" viewBox="0 0 501.000000 460.000000"
 preserveAspectRatio="xMidYMid meet">

<g transform="translate(0.000000,460.000000) scale(0.100000,-0.100000)"
fill="#000000" stroke="none">
<path d="M2347 3930 c-20 -4 -40 -10 -44 -13 -3 -4 8 -21 25 -39 18 -17 35
-46 38 -64 6 -33 -1 -58 -14 -50 -4 2 -7 -11 -6 -30 2 -41 -19 -42 -24 -1 -3
25 -5 26 -55 21 -29 -3 -58 -7 -64 -10 -15 -4 -17 -70 -3 -79 6 -3 10 -1 10 6
0 7 3 10 6 6 3 -3 21 3 39 13 29 16 35 17 45 5 7 -8 10 -31 8 -50 l-4 -35 113
0 113 0 0 90 0 90 -28 0 c-42 0 -52 17 -52 87 l0 63 -32 -1 c-18 -1 -50 -5
-71 -9z m13 -288 c-14 -5 -16 -3 -25 28 l-7 25 21 -25 c14 -15 18 -26 11 -28z"/>
<path d="M2675 3913 c3 -16 17 -40 31 -54 44 -47 12 -74 -83 -71 -52 2 -53 1
-52 -26 2 -33 16 -93 18 -72 1 17 65 45 81 35 5 -3 7 -12 3 -20 -3 -8 -1 -15
3 -15 5 0 9 -13 9 -30 0 -23 -5 -30 -20 -30 -16 -1 -17 -2 -5 -9 8 -5 70 -11
137 -13 l123 -4 6 31 c3 17 4 49 2 70 -3 34 -7 41 -33 48 -59 18 -60 20 -61
97 -1 49 -6 75 -15 81 -8 5 -45 9 -83 9 l-68 0 7 -27z"/>
<path d="M1986 3870 c-56 -22 -67 -30 -40 -30 11 0 39 -20 62 -43 43 -44 43
-44 45 -123 l2 -79 39 -3 c21 -2 42 0 47 5 4 4 9 44 10 89 1 69 -2 88 -27 142
-26 56 -32 62 -59 61 -16 -1 -52 -9 -79 -19z"/>
<path d="M3002 3809 c-20 -42 -32 -81 -29 -97 3 -23 5 -20 12 16 4 23 11 42
16 42 5 0 9 7 9 15 0 25 40 18 41 -7 4 -62 -5 -164 -14 -170 -6 -4 -9 -9 -7
-11 11 -8 89 -27 115 -27 25 0 27 3 21 28 -15 66 -18 105 -9 125 28 60 43 99
43 107 0 9 -124 50 -151 50 -8 0 -29 -32 -47 -71z"/>
<path d="M2580 3643 c0 -23 15 -39 23 -26 3 5 -1 17 -9 28 -14 18 -14 18 -14
-2z"/>
<path d="M2197 3626 c-5 -12 0 -16 21 -15 16 0 21 3 12 6 -8 3 -18 10 -21 15
-3 5 -9 3 -12 -6z"/>
<path d="M2988 3603 c7 -3 16 -2 19 1 4 3 -2 6 -13 5 -11 0 -14 -3 -6 -6z"/>
<path d="M2323 3573 l-33 -4 -1 -82 c0 -45 -2 -90 -4 -99 -3 -14 3 -18 28 -17
29 0 30 1 10 9 -19 8 -23 17 -23 50 0 48 20 61 59 39 29 -16 49 -79 25 -79 -8
0 -14 -4 -14 -9 0 -5 103 -11 233 -13 127 -2 240 -8 250 -12 16 -8 18 -1 15
100 l-3 109 -55 7 c-59 6 -434 7 -487 1z"/>
<path d="M2075 3554 c-90 -16 -110 -22 -78 -23 19 -1 21 -5 14 -22 -4 -12 -3
-39 2 -59 12 -43 -4 -95 -31 -104 -10 -3 8 -3 38 -1 30 3 56 9 58 15 3 8 8 7
17 0 8 -7 40 -10 77 -8 l63 3 0 104 0 105 -40 2 c-22 1 -76 -4 -120 -12z"/>
<path d="M2910 3548 c0 -33 13 -87 20 -83 15 9 81 -17 95 -39 11 -16 22 -22
39 -19 18 4 25 -1 29 -19 10 -36 9 -38 -20 -39 -22 -1 -20 -3 12 -9 22 -5 53
-13 68 -19 33 -13 77 -14 77 -3 0 4 -6 32 -14 62 -7 30 -17 73 -21 95 -10 56
-18 63 -88 69 -194 17 -197 17 -197 4z"/>
<path d="M2915 3360 c-3 -5 -1 -10 4 -10 6 0 11 5 11 10 0 6 -2 10 -4 10 -3 0
-8 -4 -11 -10z"/>
<path d="M2280 3319 c-80 -4 -157 -10 -172 -14 -27 -7 -28 -9 -28 -76 0 -70 3
-76 30 -59 11 7 11 10 2 10 -10 0 -10 5 -2 20 9 16 8 22 -5 26 -21 8 -19 41 4
49 41 13 69 -24 59 -79 -3 -16 -1 -23 7 -20 18 7 724 10 713 3 -14 -9 29 -19
80 -19 l42 0 0 69 c0 56 -3 70 -17 76 -22 8 -369 25 -483 23 -47 -1 -150 -5
-230 -9z"/>
<path d="M1958 3293 c-25 -4 -41 -23 -19 -23 4 0 8 -25 8 -55 0 -43 -4 -55
-16 -55 -13 0 -14 -2 -2 -9 8 -5 26 -7 40 -5 14 3 35 6 46 8 11 1 20 10 19 19
0 9 -1 42 -2 72 -2 60 -1 59 -74 48z"/>
<path d="M3059 3282 c-2 -17 3 -117 6 -120 4 -4 130 -33 173 -39 37 -6 38 -2
20 79 -16 76 -25 82 -118 85 -44 1 -80 -1 -81 -5z m51 -42 c0 -5 -7 -10 -15
-10 -8 0 -15 5 -15 10 0 6 7 10 15 10 8 0 15 -4 15 -10z m14 -43 c30 -26 26
-37 -14 -37 -23 0 -27 4 -27 30 0 36 6 37 41 7z"/>
<path d="M3249 3078 c-6 -12 -4 -46 2 -43 4 3 12 -3 18 -12 8 -15 10 -11 11
20 0 26 -4 37 -15 37 -8 0 -16 -1 -16 -2z"/>
<path d="M2556 3018 c-9 -46 -24 -58 -72 -58 -24 0 -44 -4 -44 -10 0 -5 4 -10
8 -10 4 0 22 -12 41 -27 l32 -28 -15 -37 c-24 -56 -20 -63 18 -34 43 33 57 33
97 -1 l32 -27 -7 38 c-4 20 -9 43 -12 51 -3 7 13 28 36 46 l42 34 -53 5 c-52
5 -53 6 -67 48 -16 50 -27 53 -36 10z"/>
<path d="M2060 3015 c-6 -14 -10 -32 -10 -39 0 -23 -24 -36 -67 -36 -52 0 -54
-11 -8 -40 39 -24 42 -40 19 -95 -8 -20 -14 -39 -11 -41 2 -2 19 10 38 26 42
36 56 37 99 5 46 -34 51 -32 35 16 -21 59 -20 63 26 93 22 15 38 30 36 33 -3
3 -26 6 -50 8 -58 3 -65 8 -73 50 -8 45 -21 53 -34 20z"/>
<path d="M3040 2983 c-18 -54 -28 -63 -71 -63 -22 0 -39 -4 -39 -10 0 -5 3
-10 8 -10 4 -1 19 -11 35 -23 27 -23 27 -23 12 -67 -8 -24 -13 -45 -11 -48 3
-2 21 8 41 24 l36 27 46 -32 46 -32 -7 26 c-20 79 -20 81 18 110 38 29 39 50
1 41 -41 -10 -73 9 -81 49 -9 49 -20 52 -34 8z"/>
<path d="M3270 2973 c0 -10 4 -25 10 -33 6 -9 5 -17 -3 -22 -8 -5 -6 -8 6 -8
13 0 17 9 17 40 0 29 -4 40 -15 40 -8 0 -15 -8 -15 -17z"/>
<path d="M3270 2860 c0 -6 7 -13 15 -16 11 -4 15 -21 15 -55 0 -27 3 -49 8
-49 4 0 5 27 4 60 -2 33 -8 58 -13 54 -5 -3 -9 0 -9 5 0 6 -4 11 -10 11 -5 0
-10 -5 -10 -10z"/>
<path d="M3294 2668 c10 -52 27 -60 24 -10 -2 27 -8 42 -17 42 -10 0 -12 -8
-7 -32z"/>
<path d="M2165 2599 c-49 -5 -114 -12 -142 -15 l-53 -5 0 -66 0 -65 33 6 c30
7 319 35 360 36 16 0 18 8 15 58 l-3 57 -60 1 c-33 1 -100 -2 -150 -7z"/>
<path d="M2407 2604 c-4 -4 -7 -31 -7 -61 l0 -53 180 0 181 0 -3 58 -3 57
-171 3 c-93 1 -173 -1 -177 -4z"/>
<path d="M2783 2564 c4 -21 7 -46 7 -55 0 -17 4 -18 200 -40 47 -5 97 -12 113
-15 l27 -6 0 60 0 59 -57 12 c-32 6 -112 14 -177 18 l-119 6 6 -39z"/>
<path d="M1835 2556 l-50 -12 -3 -62 c-2 -40 1 -62 8 -62 6 0 42 5 81 11 l69
12 0 63 c0 63 0 64 -27 63 -16 -1 -50 -7 -78 -13z"/>
<path d="M3160 2508 c0 -55 1 -58 28 -63 15 -3 43 -10 63 -15 20 -6 48 -10 63
-10 25 0 26 2 26 60 0 41 -4 60 -12 61 -7 0 -48 6 -90 13 l-78 12 0 -58z"/>
<path d="M2305 2454 c-231 -13 -547 -71 -740 -136 -94 -32 -198 -78 -192 -84
7 -7 2377 9 2377 16 0 8 -160 71 -240 94 -121 35 -281 65 -487 92 -111 14
-570 26 -718 18z"/>
<path d="M901 2042 c-10 -9 -22 -27 -26 -39 -6 -22 -3 -23 39 -23 47 0 62 13
26 23 -23 6 -27 27 -5 27 19 0 20 16 0 23 -7 3 -23 -2 -34 -11z"/>
<path d="M2167 2004 c-14 -15 -6 -34 14 -34 14 0 19 5 17 17 -3 18 -20 27 -31
17z"/>
<path d="M1137 1963 c-4 -3 -7 -51 -7 -105 l0 -99 -32 3 c-33 3 -33 4 -38 63
-4 47 -9 61 -22 63 -16 3 -18 -5 -18 -62 l0 -66 -40 0 -40 0 0 94 c0 96 -5
111 -34 100 -13 -5 -16 -24 -16 -109 0 -70 4 -106 13 -113 7 -6 65 -9 142 -9
l130 2 3 123 c2 113 1 122 -16 122 -10 0 -22 -3 -25 -7z"/>
<path d="M1242 1848 c3 -101 6 -123 18 -123 12 0 15 22 18 123 3 117 2 122
-18 122 -20 0 -21 -5 -18 -122z"/>
<path d="M1680 1850 l0 -120 26 -6 c14 -4 58 -4 97 -1 40 4 78 7 85 7 15 0 16
64 1 93 -7 12 -21 29 -33 39 l-21 19 24 17 c58 40 66 50 54 62 -9 10 -25 4
-73 -26 -33 -20 -63 -41 -65 -45 -8 -11 6 -39 19 -39 21 -1 55 -35 61 -62 l7
-28 -66 0 -66 0 0 105 0 105 -25 0 -25 0 0 -120z"/>
<path d="M2377 1963 c-4 -3 -7 -51 -7 -105 l0 -98 -35 0 -35 0 0 54 c0 67 -7
86 -31 86 -18 0 -19 -7 -17 -67 3 -59 1 -68 -16 -71 -23 -5 -37 16 -29 45 8
36 -5 73 -27 73 -16 0 -19 -8 -22 -57 -3 -51 -6 -58 -25 -61 -20 -3 -22 2 -25
50 -3 45 -6 53 -23 53 -17 0 -21 -8 -25 -50 -5 -48 -6 -50 -37 -53 l-32 -3 -3
63 c-3 55 -5 63 -23 63 -19 0 -20 -7 -20 -97 -1 -100 -5 -113 -39 -120 -25 -4
-32 -26 -11 -34 29 -12 82 21 90 55 5 25 12 31 33 31 15 0 33 4 41 9 7 5 25 4
41 -2 22 -8 35 -8 54 3 20 10 29 10 40 1 9 -8 48 -11 117 -9 l104 3 3 123 c2
113 1 122 -16 122 -10 0 -22 -3 -25 -7z"/>
<path d="M3555 1960 c-3 -6 -5 -52 -4 -103 l2 -92 -34 0 -34 0 -5 65 c-4 58
-7 65 -27 68 -22 3 -22 0 -20 -65 2 -62 0 -68 -18 -68 -17 0 -21 8 -25 55 -4
47 -8 55 -27 58 -20 3 -22 -1 -25 -55 -3 -51 -6 -58 -25 -61 -22 -3 -23 0 -23
53 0 53 -1 56 -22 53 -20 -3 -24 -11 -28 -53 -5 -48 -6 -50 -37 -53 l-33 -3 0
60 c0 57 -2 61 -26 67 -44 11 -106 -3 -126 -28 -23 -30 -23 -83 0 -106 11 -11
38 -22 60 -26 69 -11 49 -56 -24 -56 -43 0 -64 -13 -43 -26 18 -11 94 -7 119
6 12 6 26 24 31 40 8 22 18 29 47 34 20 3 46 6 57 5 11 -1 32 -1 48 0 32 1 31
1 172 -2 l110 -2 3 123 c2 116 2 122 -17 122 -11 0 -23 -5 -26 -10z m-435
-155 c0 -38 -3 -45 -19 -45 -38 0 -51 11 -51 44 0 40 6 46 42 46 27 0 28 -2
28 -45z"/>
<path d="M3662 1848 c3 -115 4 -123 23 -123 19 0 20 7 20 120 0 117 -1 120
-23 123 l-23 3 3 -123z"/>
<path d="M4019 1960 c-1 -5 -1 -32 -1 -60 0 -27 0 -79 1 -115 l1 -65 183 3
182 2 0 80 c0 73 -2 80 -20 80 -18 0 -20 -8 -23 -63 l-3 -63 -32 3 c-27 3 -32
7 -35 33 -6 66 -43 95 -118 95 -27 0 -34 -4 -34 -20 0 -17 7 -20 39 -20 44 0
71 -26 71 -68 0 -22 -2 -23 -82 -20 l-83 3 -3 103 c-2 94 -4 102 -22 102 -11
0 -20 -4 -21 -10z"/>
<path d="M4426 1961 c-3 -5 3 -37 14 -71 11 -35 20 -69 20 -76 0 -17 37 -37
45 -25 3 6 -4 48 -16 95 -17 69 -25 86 -40 86 -10 0 -20 -4 -23 -9z"/>
<path d="M4540 1866 l0 -105 -52 -3 c-39 -2 -53 -7 -53 -18 0 -11 17 -15 72
-18 87 -4 85 -7 81 143 -3 95 -4 100 -25 103 -23 3 -23 2 -23 -102z"/>
<path d="M4650 1965 c-5 -63 1 -230 8 -237 24 -24 32 7 32 123 0 112 -1 119
-20 119 -11 0 -20 -2 -20 -5z"/>
<path d="M987 1954 c-16 -16 -6 -35 16 -32 12 2 22 10 22 18 0 16 -26 25 -38
14z"/>
<path d="M1047 1954 c-16 -16 -6 -35 16 -32 12 2 22 10 22 18 0 16 -26 25 -38
14z"/>
<path d="M1477 1954 c-16 -16 -6 -35 16 -32 12 2 22 10 22 18 0 16 -26 25 -38
14z"/>
<path d="M1534 1945 c-3 -8 -3 -19 0 -24 10 -16 36 -1 36 20 0 22 -28 26 -36
4z"/>
<path d="M2135 1950 c-8 -14 3 -30 21 -30 8 0 14 9 14 20 0 21 -24 28 -35 10z"/>
<path d="M2197 1954 c-14 -15 -6 -34 14 -34 14 0 19 5 17 17 -3 18 -20 27 -31
17z"/>
<path d="M4317 1954 c-14 -15 -6 -34 14 -34 14 0 19 5 17 17 -3 18 -20 27 -31
17z"/>
<path d="M4370 1940 c0 -13 7 -20 20 -20 13 0 20 7 20 20 0 13 -7 20 -20 20
-13 0 -20 -7 -20 -20z"/>
<path d="M377 1884 c-14 -15 -6 -34 14 -34 14 0 19 5 17 17 -3 18 -20 27 -31
17z"/>
<path d="M447 1884 c-4 -4 -7 -46 -7 -94 0 -91 -8 -110 -45 -110 -33 0 -45 20
-45 77 0 54 -12 67 -38 41 -15 -15 -16 -72 -1 -101 38 -74 141 -75 169 -1 l10
24 169 0 c125 0 171 3 179 13 15 18 5 117 -15 139 -24 26 -85 24 -119 -5 -21
-18 -26 -31 -26 -65 1 -37 -2 -42 -23 -42 -18 0 -24 7 -29 35 -4 20 -5 44 -2
53 8 23 -9 46 -27 39 -11 -4 -17 -23 -19 -64 l-3 -58 -42 -3 -42 -3 -3 63 c-2
47 -7 64 -18 66 -9 1 -19 0 -23 -4z m347 -50 c3 -9 6 -29 6 -45 0 -25 -4 -29
-30 -29 -35 0 -54 27 -44 65 5 19 13 25 34 25 16 0 30 -7 34 -16z"/>
<path d="M1417 1879 c-20 -12 -23 -65 -6 -102 6 -14 23 -30 38 -37 30 -14 171
-24 171 -13 1 5 2 42 3 83 2 69 0 75 -18 75 -18 0 -20 -8 -23 -62 l-3 -63 -48
0 c-61 0 -86 24 -84 80 2 44 -5 53 -30 39z"/>
<path d="M2553 1883 c-8 -3 -13 -24 -13 -54 0 -66 29 -95 104 -104 87 -11 90
-9 96 63 3 34 8 62 13 62 4 0 13 0 21 0 7 0 17 -18 22 -42 12 -58 38 -58 42
-1 5 61 -22 85 -91 81 l-52 -3 -3 -62 -3 -63 -33 0 c-51 0 -70 20 -71 76 -1
47 -8 57 -32 47z"/>
<path d="M2926 1881 c-4 -5 -6 -51 -5 -101 1 -95 -2 -106 -36 -112 -11 -2 -20
-10 -20 -18 0 -22 54 -15 79 10 19 18 21 33 21 123 0 87 -2 102 -17 105 -9 2
-19 -1 -22 -7z"/>
<path d="M3850 1872 c0 -11 11 -24 25 -30 25 -12 59 -65 48 -76 -4 -3 -26 -6
-49 -6 -24 0 -45 -4 -48 -9 -10 -16 19 -26 79 -26 l60 0 -2 42 c-2 53 -16 79
-56 103 -40 25 -57 25 -57 2z"/>
<path d="M527 1684 c-9 -10 4 -34 19 -34 8 0 14 9 14 20 0 19 -19 27 -33 14z"/>
<path d="M585 1680 c-8 -13 14 -42 26 -34 5 3 9 14 9 25 0 20 -24 26 -35 9z"/>
<path d="M2610 1670 c0 -11 7 -20 15 -20 8 0 15 9 15 20 0 11 -7 20 -15 20 -8
0 -15 -9 -15 -20z"/>
<path d="M2665 1680 c-4 -6 -1 -17 5 -26 15 -18 42 0 33 22 -6 16 -29 19 -38
4z"/>
<path d="M385 1463 c-48 -12 -69 -59 -42 -94 7 -9 27 -24 45 -33 23 -12 32
-22 28 -32 -3 -9 -6 -18 -6 -20 0 -2 -16 -4 -35 -4 -43 0 -49 -26 -8 -36 35
-9 75 14 87 49 13 35 1 56 -48 81 -45 24 -44 50 2 54 34 3 44 25 16 36 -9 3
-16 5 -17 5 -1 -1 -11 -4 -22 -6z"/>
<path d="M1740 1463 c-58 -22 -68 -84 -19 -111 61 -34 65 -38 50 -56 -8 -9
-28 -16 -47 -16 -36 0 -42 -8 -22 -28 33 -33 118 11 118 62 0 25 -41 66 -65
66 -18 0 -28 32 -13 42 7 4 23 8 36 8 17 0 23 5 20 18 -3 18 -32 25 -58 15z"/>
<path d="M4375 1463 c-29 -7 -56 -34 -72 -71 -27 -64 23 -152 87 -152 31 0 76
29 89 57 14 31 14 99 0 125 -9 16 -70 51 -81 47 -2 -1 -12 -4 -23 -6z m53 -49
c17 -12 22 -25 22 -59 0 -46 -24 -75 -61 -75 -52 0 -68 112 -19 137 32 16 31
16 58 -3z"/>
<path d="M480 1450 c0 -6 14 -37 30 -70 17 -33 30 -75 30 -94 0 -38 17 -57 31
-35 5 8 9 29 9 47 0 18 14 59 30 92 36 71 36 70 9 70 -14 0 -25 -12 -37 -40
-9 -22 -21 -40 -25 -40 -5 0 -16 18 -24 40 -11 27 -22 40 -35 40 -10 0 -18 -5
-18 -10z"/>
<path d="M668 1448 c-2 -7 -2 -55 0 -105 3 -85 5 -93 23 -93 17 0 20 6 17 32
-4 45 15 45 41 -2 14 -25 29 -40 42 -40 25 0 24 8 -6 52 -30 45 -31 50 -5 66
27 17 28 77 1 92 -28 14 -108 13 -113 -2z m76 -24 c22 -8 20 -41 -3 -53 -23
-13 -31 -5 -31 31 0 29 6 33 34 22z"/>
<path d="M845 1448 c-3 -7 -3 -44 -1 -83 2 -38 5 -80 5 -92 1 -13 7 -23 16
-23 12 0 15 18 15 105 0 88 -3 105 -15 105 -9 0 -18 -6 -20 -12z"/>
<path d="M962 1433 c-31 -79 -61 -177 -56 -185 10 -15 24 -8 36 17 9 21 18 25
55 25 31 0 43 -4 43 -15 0 -17 36 -39 44 -26 4 5 -10 55 -30 110 -32 88 -39
101 -59 101 -15 0 -26 -9 -33 -27z m50 -83 c2 -19 -2 -26 -19 -28 -26 -4 -30
16 -12 50 13 24 27 14 31 -22z"/>
<path d="M1117 1446 c-3 -8 -3 -55 0 -105 4 -67 10 -91 19 -91 10 0 14 16 14
60 0 78 16 78 55 0 28 -57 53 -79 75 -65 6 3 10 51 10 111 0 97 -1 104 -20
104 -17 0 -19 -8 -22 -67 l-3 -68 -38 68 c-30 53 -43 67 -61 67 -13 0 -26 -6
-29 -14z"/>
<path d="M1400 1355 c0 -87 3 -105 15 -105 12 0 15 18 15 105 0 87 -3 105 -15
105 -12 0 -15 -18 -15 -105z"/>
<path d="M1480 1356 c0 -80 3 -105 14 -109 19 -7 26 13 26 74 0 27 3 49 8 49
4 0 21 -26 38 -58 24 -45 36 -58 57 -60 26 -3 27 -2 28 55 1 32 3 74 4 94 4
43 -7 64 -30 55 -14 -5 -16 -16 -12 -66 2 -33 1 -60 -2 -60 -4 0 -23 29 -42
65 -29 56 -38 65 -61 65 l-28 0 0 -104z"/>
<path d="M1850 1375 c0 -71 3 -88 20 -105 42 -42 116 -33 139 16 6 14 11 58
11 99 0 68 -2 75 -20 75 -18 0 -20 -7 -20 -78 0 -83 -9 -102 -47 -102 -32 0
-43 28 -43 109 0 64 -2 71 -20 71 -18 0 -20 -7 -20 -85z"/>
<path d="M2064 1447 c-2 -7 -1 -56 3 -108 8 -95 25 -126 31 -56 4 46 15 47 44
2 13 -19 29 -37 36 -40 28 -11 31 7 7 43 -30 44 -30 47 -5 72 25 25 26 62 2
83 -23 21 -110 23 -118 4z m77 -27 c23 -13 24 -24 4 -44 -20 -20 -45 -10 -45
18 0 36 10 42 41 26z"/>
<path d="M2293 1448 c-13 -16 -63 -169 -63 -192 0 -24 17 -20 36 9 22 33 89
36 99 5 6 -19 45 -29 45 -12 0 5 -15 51 -34 103 -25 72 -38 95 -53 97 -11 2
-24 -3 -30 -10z m42 -95 c6 -29 4 -33 -14 -33 -28 0 -33 12 -20 50 13 36 24
30 34 -17z"/>
<path d="M2439 1453 c-3 -23 3 -198 6 -202 2 -2 12 -1 21 3 13 5 16 16 12 61
-4 41 -1 55 9 55 7 0 13 -4 13 -10 0 -5 14 -32 31 -60 23 -38 37 -50 55 -50
24 0 24 1 24 106 0 95 -2 105 -17 102 -14 -2 -19 -17 -23 -68 l-5 -65 -36 65
c-28 52 -41 66 -62 68 -15 2 -27 0 -28 -5z"/>
<path d="M2687 1442 c-51 -31 -59 -122 -15 -169 37 -39 118 -42 118 -4 0 14
-6 17 -30 13 -41 -6 -70 21 -70 65 0 55 15 73 60 73 33 0 40 3 40 20 0 16 -7
20 -37 20 -21 0 -51 -8 -66 -18z"/>
<path d="M2830 1356 l0 -105 45 -7 c25 -3 52 -3 61 0 25 10 10 31 -27 36 -28
4 -34 9 -34 30 0 21 6 26 33 30 18 3 33 10 33 15 0 6 -15 12 -33 15 -27 4 -33
9 -33 30 0 22 4 25 35 26 24 0 35 5 35 15 0 10 -15 15 -57 17 l-58 3 0 -105z"/>
<path d="M3052 1353 c2 -88 6 -108 18 -108 10 0 16 11 17 35 1 19 2 40 2 47 1
6 16 13 34 15 17 2 32 8 32 13 0 6 -15 11 -32 13 -27 3 -33 8 -33 27 0 19 6
24 33 27 20 2 32 8 32 18 0 11 -14 16 -53 18 l-53 3 3 -108z"/>
<path d="M3190 1368 c0 -51 4 -98 8 -105 4 -6 30 -13 57 -14 40 -3 50 0 53 13
2 13 -6 17 -35 20 -33 3 -38 6 -38 28 0 21 6 26 33 30 42 6 42 24 0 30 -59 9
-47 60 15 60 17 0 27 5 27 15 0 12 -13 15 -60 15 l-60 0 0 -92z"/>
<path d="M3348 1455 c-6 -7 -1 -195 6 -202 13 -13 94 -6 118 11 57 38 63 147
9 179 -27 16 -121 24 -133 12z m115 -58 c26 -29 18 -75 -16 -101 -42 -31 -59
-14 -59 56 0 31 3 61 7 67 9 16 46 4 68 -22z"/>
<path d="M3553 1445 c-6 -17 0 -182 8 -189 2 -2 26 -6 54 -7 40 -3 50 0 53 13
2 13 -6 17 -35 20 -33 3 -38 6 -38 28 0 21 6 26 33 30 43 7 46 24 5 28 -22 2
-34 10 -39 24 -7 25 11 39 46 36 17 -2 26 3 28 15 3 14 -5 17 -53 17 -41 0
-57 -4 -62 -15z"/>
<path d="M3710 1355 c0 -98 1 -105 20 -105 16 0 19 6 16 30 -5 44 7 44 43 0
20 -25 37 -37 46 -33 13 4 12 12 -9 48 -25 42 -25 43 -6 60 27 24 27 81 1 95
-11 5 -40 10 -65 10 l-46 0 0 -105z m80 60 c16 -20 5 -45 -20 -45 -14 0 -20 7
-20 23 0 38 18 48 40 22z"/>
<path d="M3935 1450 c-6 -10 -65 -187 -65 -195 0 -15 39 -2 43 15 7 29 86 29
94 1 6 -25 32 -35 39 -16 5 12 -35 143 -58 188 -10 19 -43 23 -53 7z m39 -76
c12 -31 6 -54 -13 -54 -27 0 -33 13 -21 44 11 29 25 34 34 10z"/>
<path d="M4052 1443 c2 -10 12 -18 23 -18 18 0 21 -9 25 -85 4 -70 8 -85 23
-88 15 -3 17 6 17 76 0 80 11 106 41 100 7 -2 15 5 17 15 3 15 -5 17 -73 17
-67 0 -76 -2 -73 -17z"/>
<path d="M4226 1451 c-11 -17 7 -201 19 -201 13 0 31 182 20 200 -8 12 -32 13
-39 1z"/>
<path d="M4529 1453 c-3 -20 4 -199 8 -206 12 -20 23 10 23 62 0 32 3 61 6 64
7 6 26 -22 61 -90 17 -33 44 -50 63 -38 6 3 10 51 10 111 0 95 -2 105 -17 102
-14 -2 -19 -17 -23 -68 -5 -70 -5 -70 -50 14 -21 39 -34 52 -54 54 -14 2 -27
0 -27 -5z"/>
</g>
</svg>
